<svg id="Layer_1" data-name="Layer 1" xmlns="http://www.w3.org/2000/svg" viewBox="0 0 32 32"><defs><style>.cls-1{fill:#fff;}</style></defs><title>_icn_tv_assets</title><path class="cls-1" d="M29.36.45,22,7.81V3.46a1.55,1.55,0,1,0-3.1,0v8.11a1.55,1.55,0,0,0,.11.57l.33.49v0h0l.49.33a1.55,1.55,0,0,0,.59.12h8.09a1.55,1.55,0,1,0,0-3.1H24.19l7.36-7.36A1.55,1.55,0,0,0,29.36.45Z"/><path class="cls-1" d="M7.81,10H3.46a1.55,1.55,0,1,0,0,3.1h8.09a1.55,1.55,0,0,0,.59-.12l.49-.33h0v0l.33-.49a1.54,1.54,0,0,0,.11-.57V3.46a1.55,1.55,0,1,0-3.1,0h0V7.81L2.64.45A1.55,1.55,0,0,0,.45,2.64Z"/><path class="cls-1" d="M24.19,22h4.35a1.55,1.55,0,1,0,0-3.1H20.45a1.55,1.55,0,0,0-1.55,1.55v8.09a1.55,1.55,0,0,0,3.1,0h0V24.19l7.36,7.36a1.55,1.55,0,1,0,2.19-2.19Z"/><path class="cls-1" d="M13.1,20.45a1.55,1.55,0,0,0-1.55-1.55H3.46a1.55,1.55,0,1,0,0,3.1H7.81L.45,29.36a1.55,1.55,0,0,0,2.19,2.19L10,24.19v4.35a1.55,1.55,0,0,0,3.1,0Z"/></svg>