<svg id="Layer_1" data-name="Layer 1" xmlns="http://www.w3.org/2000/svg" viewBox="0 0 32 32"><defs><style>.cls-1{fill:#cdcdcd;}</style></defs><title>_icn_tv_assets</title><path class="cls-1" d="M29.24,19.21c.36-2,3-3.54,2.74-5.6-.25-1.78-3.15-2-4-3.56-1-1.8,0-4.66-1.5-6-1.34-1.2-3.7.49-5.39-.12-2-.71-3-3.6-5-3.67C14.21.15,13.49,3,11.8,3.58c-2,.71-4.58-.86-6.22.43C4.17,5.12,5.42,7.73,4.52,9.29c-1,1.8-4.06,2.29-4.49,4.32-.37,1.76,2.27,3,2.59,4.73C3,20.39,1,22.71,2,24.54c.85,1.58,3.64.8,5,2,1.59,1.34,1.55,4.4,3.48,5.17,1.67.67,3.31-1.73,5.1-1.73,2.08,0,4,2.37,6,1.73,1.71-.56,1.42-3.45,2.8-4.6,1.59-1.34,4.6-.76,5.7-2.53C31,23,28.93,21,29.24,19.21ZM9.82,13.14a2.12,2.12,0,1,1,2.12,2.12A2.13,2.13,0,0,1,9.82,13.14Zm1.73,10.24-1-.77L20.77,9.87l1,.77Zm8.63-.8a2.12,2.12,0,1,1,2.12-2.12A2.13,2.13,0,0,1,20.18,22.58Z"/></svg>