<svg id="Layer_1" data-name="Layer 1" xmlns="http://www.w3.org/2000/svg" viewBox="0 0 32 32"><defs><style>.cls-1{fill:#fff;}</style></defs><title>_icn_tv_assets</title><path class="cls-1" d="M13.71,0a1.52,1.52,0,0,0-1.52,1.52v2.1a12.85,12.85,0,0,0-2.26.93L8.45,3.07a1.52,1.52,0,0,0-2.15,0L3.07,6.3a1.52,1.52,0,0,0,0,2.15L4.55,9.93a12.85,12.85,0,0,0-.93,2.26H1.52A1.52,1.52,0,0,0,0,13.71v4.57a1.52,1.52,0,0,0,1.52,1.52h2.1a12.85,12.85,0,0,0,.93,2.26L3.07,23.55a1.52,1.52,0,0,0,0,2.15L6.3,28.93a1.52,1.52,0,0,0,2.15,0l1.48-1.48a12.85,12.85,0,0,0,2.26.93v2.1A1.52,1.52,0,0,0,13.71,32h4.57a1.52,1.52,0,0,0,1.52-1.52v-2.1a12.85,12.85,0,0,0,2.25-.93l1.48,1.48a1.52,1.52,0,0,0,2.15,0l3.24-3.23a1.52,1.52,0,0,0,0-2.15l-1.49-1.49a12.89,12.89,0,0,0,.94-2.25h2.1A1.52,1.52,0,0,0,32,18.29V13.71a1.52,1.52,0,0,0-1.52-1.52h-2.1a12.89,12.89,0,0,0-.94-2.25l1.49-1.49a1.52,1.52,0,0,0,0-2.15L25.69,3.07a1.52,1.52,0,0,0-2.15,0L22.06,4.55a12.84,12.84,0,0,0-2.25-.93V1.52A1.52,1.52,0,0,0,18.29,0ZM16,8.38A7.62,7.62,0,1,1,8.38,16,7.63,7.63,0,0,1,16,8.38ZM16,9.9A6.1,6.1,0,1,0,22.1,16,6.08,6.08,0,0,0,16,9.9Z"/></svg>