<svg id="Layer_1" data-name="Layer 1" xmlns="http://www.w3.org/2000/svg" viewBox="0 0 32 32"><defs><style>.cls-1{fill:#333;}</style></defs><title>_icn_tv_assets</title><path class="cls-1" d="M13.71,0A1.51,1.51,0,0,0,12.2,1.52v2.1a12.89,12.89,0,0,0-5.12,3l-1.83-1a1.5,1.5,0,0,0-2.06.58L1,10.18a1.54,1.54,0,0,0,.6,2.08l1.82,1a13,13,0,0,0,0,5.43l-1.82,1A1.54,1.54,0,0,0,1,21.82l2.24,4a1.5,1.5,0,0,0,2.06.58l1.83-1a12.89,12.89,0,0,0,5.12,3v2.1A1.51,1.51,0,0,0,13.71,32h4.57a1.51,1.51,0,0,0,1.51-1.52v-2.1a12.9,12.9,0,0,0,5.12-3l1.83,1a1.5,1.5,0,0,0,2.06-.58l2.24-4a1.54,1.54,0,0,0-.6-2.08l-1.82-1a13,13,0,0,0,0-5.43l1.82-1a1.54,1.54,0,0,0,.6-2.08l-2.24-4a1.5,1.5,0,0,0-2.06-.58l-1.83,1a12.89,12.89,0,0,0-5.12-3V1.52A1.51,1.51,0,0,0,18.29,0ZM16,8.38A7.62,7.62,0,1,1,8.38,16,7.63,7.63,0,0,1,16,8.38ZM16,9.9A6.1,6.1,0,1,0,22.1,16,6.08,6.08,0,0,0,16,9.9Z"/></svg>