<svg id="Layer_1" data-name="Layer 1" xmlns="http://www.w3.org/2000/svg" viewBox="0 0 32 32"><defs><style>.cls-1{fill:#010101;}</style></defs><title>_icn_tv_assets</title><path d="M10.11,23.07,8.83,19.3H3.51L2.24,23.07H0l5-14H7.36l5,14Zm-4-11.63L4.07,17.56H8.28L6.2,11.44Z"/><path class="cls-1" d="M18.08,10.49H10.34a1,1,0,0,1,0-2.06h7.74a1,1,0,0,1,0,2.06Z"/><path class="cls-1" d="M25.56,17.13H12.4a1,1,0,0,1,0-2.06H25.56a1,1,0,1,1,0,2.06Z"/><path class="cls-1" d="M31,23.58H15.5a1,1,0,0,1,0-2.06H31a1,1,0,1,1,0,2.06Z"/></svg>