<svg id="Layer_1" data-name="Layer 1" xmlns="http://www.w3.org/2000/svg" viewBox="0 0 32 32"><defs><style>.cls-1{fill:#fff;}</style></defs><title>_icn_tv_assets</title><path class="cls-1" d="M29.35,1.4H2.65A2.5,2.5,0,0,0,.18,3.9V20.7a2.47,2.47,0,0,0,2.47,2.47H12l3.51,7a.67.67,0,0,0,1.14.16l7.21-7.18h5.44a2.47,2.47,0,0,0,2.47-2.47V3.9A2.5,2.5,0,0,0,29.35,1.4ZM9.1,13.77a.5.5,0,0,1,.51-.51h7a.5.5,0,0,1,.51.51v1a.5.5,0,0,1-.51.51h-7a.5.5,0,0,1-.51-.51Zm-4.94,0a.5.5,0,0,1,.51-.51h3a.5.5,0,0,1,.51.51v1a.5.5,0,0,1-.51.51h-3a.54.54,0,0,1-.51-.51Zm7.94,4.94a.53.53,0,0,1,0,.1.5.5,0,0,1-.21.32.51.51,0,0,1-.29.09H4.67a.5.5,0,0,1-.51-.51v-1a.5.5,0,0,1,.51-.51H11.6a.5.5,0,0,1,.51.51Zm8.89,0a.53.53,0,0,1,0,.1.5.5,0,0,1-.21.32.51.51,0,0,1-.29.09H13.56a.5.5,0,0,1-.51-.51v-1a.5.5,0,0,1,.51-.51h6.93a.5.5,0,0,1,.51.51Zm6.93,0a.53.53,0,0,1,0,.1.5.5,0,0,1-.21.32.51.51,0,0,1-.29.09H22.49A.5.5,0,0,1,22,18.7v-1a.5.5,0,0,1,.51-.51h4.94a.5.5,0,0,1,.51.51Zm0-4a.5.5,0,0,1-.51.51H18.53a.5.5,0,0,1-.51-.51v-1a.5.5,0,0,1,.51-.51h8.89a.5.5,0,0,1,.51.51Z"/></svg>