<svg id="Layer_1" data-name="Layer 1" xmlns="http://www.w3.org/2000/svg" viewBox="0 0 32 32"><defs><style>.cls-1{fill:#cdcdcd;}</style></defs><title>_icn_tv_assets</title><path class="cls-1" d="M32,25.21V25H25.14a14.33,14.33,0,1,0-4.83,3.75H32v-.2h-.92v-.4H32v-.25h-.45v-2H32v-.29h-.94v-.4Zm-2.86,0h1.08v.41H29.14ZM27,25.2h1.08v.41H27Zm-1.12,0v.41H24.83v-.22L25,25.2ZM8.75,15.88a3.08,3.08,0,1,1,2-3.88A3.08,3.08,0,0,1,8.75,15.88Zm.08,7.81a3.08,3.08,0,1,1,2-3.87A3.08,3.08,0,0,1,8.83,23.68Zm4.54-9.5a3.08,3.08,0,1,1-2,3.88A3.08,3.08,0,0,1,13.37,14.18Zm.26-7.38a3.08,3.08,0,1,1-2,3.88A3.08,3.08,0,0,1,13.62,6.8Zm-.38,14.92a3.08,3.08,0,1,1-2,3.87A3.08,3.08,0,0,1,13.25,21.72Zm6.67-3.2a3.08,3.08,0,1,1-2,3.88A3.08,3.08,0,0,1,19.92,18.52Zm.26-7.38a3.08,3.08,0,1,1-2,3.88A3.08,3.08,0,0,1,20.17,11.14Zm-6-7.53A12.38,12.38,0,0,1,26.45,14.29c-.07-.31-.15-.62-.25-.93a12.61,12.61,0,0,0-24.26.93A12.38,12.38,0,0,1,14.2,3.62Zm6.56,25c.23-.12.45-.25.67-.38v.38Zm2.87,0H22.55v-.4h1.08Zm1.08-.65H21.86a14.23,14.23,0,0,0,2.55-2.09h.29Zm1.21.65H24.83v-.4h1.08Zm2.2,0H27v-.4h1.08Zm2.11,0H29.14v-.4h1.08Zm.09-.65H25.86V25.85h4.45Z"/></svg>