<svg id="Layer_1" data-name="Layer 1" xmlns="http://www.w3.org/2000/svg" viewBox="0 0 32 32"><defs><style>.cls-1{fill:#fff;}</style></defs><title>_icn_tv_assets</title><path class="cls-1" d="M25.23,31.46a1.1,1.1,0,0,0,1.07-1.14,1.12,1.12,0,0,0,0-.15l-1.58-9.79,7-7a1.12,1.12,0,0,0,0-1.57,1.09,1.09,0,0,0-.63-.32L21.38,10,17,1.16a1.09,1.09,0,0,0-1.47-.5,1.1,1.1,0,0,0-.5.5L10.62,10,.94,11.51a1.12,1.12,0,0,0-.61,1.89l7,7L5.71,30.17a1.11,1.11,0,0,0,.91,1.27,1.09,1.09,0,0,0,.67-.11L16,26.78l8.71,4.56A1.09,1.09,0,0,0,25.23,31.46Zm-1.46-3.12-7.28-3.8a1.08,1.08,0,0,0-1,0l-7.28,3.8,1.34-8.17a1.12,1.12,0,0,0-.32-1L3.43,13.38l8.09-1.25a1.1,1.1,0,0,0,.81-.6L16,4.13l3.67,7.39a1.1,1.1,0,0,0,.81.6l8.09,1.25L22.75,19.2a1.12,1.12,0,0,0-.32,1l1.34,8.17Z"/></svg>