<svg id="Layer_1" data-name="Layer 1" xmlns="http://www.w3.org/2000/svg" viewBox="0 0 32 32"><defs><style>.cls-1{fill:#cdcdcd;}</style></defs><title>_icn_tv_assets</title><path class="cls-1" d="M30,1.45A1.08,1.08,0,0,0,28.71.4L12.55,3.63a1.08,1.08,0,0,0-.87,1.06V21.92A5,5,0,0,0,10,21.5,7.81,7.81,0,0,0,5.63,22.6a7.8,7.8,0,0,0-3.12,3.19,4.11,4.11,0,0,0-.06,3.91,4.21,4.21,0,0,0,3.81,1.92,8,8,0,0,0,3.92-1.12,7.8,7.8,0,0,0,3.12-3.19,5.39,5.39,0,0,0,.53-2.48c0-.07,0-12.81,0-12.81l14-2.8v9.46a5,5,0,0,0-1.73-.42,8.27,8.27,0,0,0-7.43,4.29,4.11,4.11,0,0,0-.06,3.91,4.21,4.21,0,0,0,3.81,1.92,8,8,0,0,0,3.92-1.12,7.8,7.8,0,0,0,3.12-3.19A5.41,5.41,0,0,0,30,21.61C30,21.54,30,1.45,30,1.45ZM11.38,26.36a5.71,5.71,0,0,1-2.26,2.27c-2.12,1.22-4.22,1-4.79,0a2.08,2.08,0,0,1,.13-1.88,5.71,5.71,0,0,1,2.26-2.27,5.88,5.88,0,0,1,2.85-.83h.25a2.08,2.08,0,0,1,1.69.83A2.08,2.08,0,0,1,11.38,26.36ZM13.84,9.83V5.57l14-2.8V7Zm13.7,13.29a5.71,5.71,0,0,1-2.26,2.27c-2.12,1.22-4.22,1-4.79,0a2.08,2.08,0,0,1,.13-1.88,5.71,5.71,0,0,1,2.26-2.27,5.88,5.88,0,0,1,2.85-.83H26a2.08,2.08,0,0,1,1.69.83A2.08,2.08,0,0,1,27.54,23.13Z"/><polygon class="cls-1" points="5.11 23.64 8.45 23.32 11.69 23.32 12.44 26.55 9.12 28.64 6.19 30.06 3.07 28.34 5.11 23.64"/><polygon class="cls-1" points="21.7 20.41 25.48 19.61 27.85 20.41 28.6 23.32 25.8 26.23 20.84 26.55 18.9 24.57 21.7 20.41"/><polygon class="cls-1" points="12.44 4.85 12.98 10.99 28.6 7.92 28.6 1.84 12.44 4.85"/></svg>