<svg id="Layer_1" data-name="Layer 1" xmlns="http://www.w3.org/2000/svg" viewBox="0 0 32 32"><defs><style>.cls-1{fill:#cdcdcd;}</style></defs><title>_icn_tv_assets</title><path class="cls-1" d="M3.7,30.25H6.55v1a.76.76,0,0,0,.76.76H9.55a.76.76,0,0,0,.76-.76h0v-1H21.69v1a.76.76,0,0,0,.76.76h2.24a.76.76,0,0,0,.76-.76h0v-1h2.86a3.37,3.37,0,0,0,3.37-3.37h0V9.54A3.37,3.37,0,0,0,28.3,6.17h-7.4a5.76,5.76,0,0,0-1.28-1.5l2.82-2.82A1.07,1.07,0,0,0,20.94.32L17.65,3.61a5.65,5.65,0,0,0-3.25,0L11.1.32A1.08,1.08,0,0,0,9.56,1.85l2.83,2.83a5.75,5.75,0,0,0-1.3,1.5H3.7A3.37,3.37,0,0,0,.32,9.54V26.87a3.37,3.37,0,0,0,3.36,3.38ZM27.27,13.79a1.14,1.14,0,1,1-1.14,1.14,1.14,1.14,0,0,1,1.14-1.14Zm0,3.25a1.14,1.14,0,1,1-1.14,1.14A1.14,1.14,0,0,1,27.27,17Zm0,3.25a1.14,1.14,0,1,1-1.14,1.14,1.14,1.14,0,0,1,1.14-1.14ZM4.83,11.69a1,1,0,0,1,1-1h16a1,1,0,0,1,1,1h0v13a1,1,0,0,1-1,1h-16a1,1,0,0,1-1-1h0Zm6.75,7L7.06,15.26V12.62L11.57,16l4.54-3.44L20.66,16v2.63l-4.54-3.44Zm0,5.14L7.06,20.39V17.76l4.51,3.42,4.54-3.44,4.54,3.44v2.63l-4.54-3.44Z"/></svg>