<svg id="Layer_1" data-name="Layer 1" xmlns="http://www.w3.org/2000/svg" viewBox="0 0 32 32"><defs><style>.cls-1{fill:none;}.cls-2{fill:#010101;}</style></defs><title>_icn_tv_assets</title><path class="cls-1" d="M16,32S4.55,19.08,4.55,11.45C4.55,4.59,9.14,0,16,0S27.45,4.59,27.45,11.45C27.45,19.08,16,32,16,32Z"/><path class="cls-2" d="M16,0C9.14,0,4.55,4.59,4.55,11.45,4.55,19.08,16,32,16,32S27.45,19.08,27.45,11.45C27.45,4.59,22.86,0,16,0ZM6.57,11.79C6.57,5.93,10.15,2,16,2s9.43,3.91,9.43,9.77C25.43,18.29,16,29,16,29S6.57,18.29,6.57,11.79Z"/><path class="cls-2" d="M16.05,8.44a3,3,0,1,1-3.05,3A3.05,3.05,0,0,1,16.05,8.44Z"/></svg>