<svg id="Layer_1" data-name="Layer 1" xmlns="http://www.w3.org/2000/svg" viewBox="0 0 32 32"><defs><style>.cls-1{fill:#cdcdcd;}</style></defs><title>_icn_tv_assets</title><path class="cls-1" d="M19.16,2.51a13.06,13.06,0,0,0-13,13H32.12A13.06,13.06,0,0,0,19.16,2.51Z"/><path class="cls-1" d="M31.42,13.89a1.43,1.43,0,0,1-1.22,1.57H1.1A1.43,1.43,0,0,1-.12,13.89V12.48A1.43,1.43,0,0,1,1.1,10.91H30.19a1.43,1.43,0,0,1,1.22,1.57Z"/><path class="cls-1" d="M28.15,16.89A5,5,0,0,0,31,21.45a11.33,11.33,0,0,0,1.07-4.94h-4A3.07,3.07,0,0,0,28.15,16.89Z"/><path class="cls-1" d="M27.4,17.12c0-.2,0-.26,0-.61H6.2a13,13,0,0,0,24.56,5.8A5.69,5.69,0,0,1,27.4,17.12ZM12.87,19.89c0-.76.35-1.37.79-1.37s.79.62.79,1.37-.35,1.37-.79,1.37S12.87,20.65,12.87,19.89Zm6.28,7.66c-3,0-5.5-1-5.5-2.16s2.85.2,5.89.2,5.11-1.39,5.11-.2S22.19,27.55,19.16,27.55Zm6.28-6.28c-.43,0-.79-.62-.79-1.37s.35-1.37.79-1.37.79.62.79,1.37S25.87,21.27,25.44,21.27Z"/></svg>