<svg id="Layer_1" data-name="Layer 1" xmlns="http://www.w3.org/2000/svg" viewBox="0 0 32 32"><defs><style>.cls-1{fill:#cdcdcd;fill-rule:evenodd;}</style></defs><title>_icn_tv_assets</title><path class="cls-1" d="M26.36,10.72a3.21,3.21,0,0,1,3.2,3.2V27.54a3.21,3.21,0,0,1-3.2,3.2h-.61v1.09h-3V30.74H9.09v1.09h-3V30.74H5.64a3.21,3.21,0,0,1-3.19-3.2V13.92a3.2,3.2,0,0,1,3.19-3.2ZM9,2.47l3.59,4.39L16.65.17l1.76,1.07-4,6.54A3.27,3.27,0,0,1,15.92,10H9.47a3.26,3.26,0,0,1,1.29-2.08L7.38,3.78,9,2.47Zm2.75,13.7c-1.08-.62-2.6,0-3.41,1.42s-.6,3,.47,3.66,1.61-.61,2.42-2,1.59-2.45.51-3.07ZM23.44,14.1v.73h4V14.1Zm1.87,10a1.13,1.13,0,1,0,1.13,1.13,1.13,1.13,0,0,0-1.13-1.13Zm0-3.45a1.13,1.13,0,1,0,1.13,1.13,1.13,1.13,0,0,0-1.13-1.13Zm-1.87-2.84v.73h4v-.73Zm0-1.25v.73h4v-.73Zm0-1.23v.73h4v-.73Zm-12.73-.93a4.3,4.3,0,0,0-4.29,4.29v3.55a4.3,4.3,0,0,0,4.29,4.29h7.21a4.3,4.3,0,0,0,4.29-4.29V18.71a4.3,4.3,0,0,0-4.29-4.29Z"/></svg>